<svg id="Ebene_1" data-name="Ebene 1" xmlns="http://www.w3.org/2000/svg" width="459.9" height="95.13" viewBox="0 0 459.9 95.13">
  <title>BlueBird-Header</title>
  <g>
    <path d="M84.54,11.22l-6.08,3.12c7.41,14.13,2.35,34.78-13.32,49.78C53.8,75,39.42,80.88,19.52,81V95.17c23.38,0,41.11-9.6,54.32-22.52C92.85,54,97.45,27.22,84.54,11.22Z" fill="#00bdff"/>
    <circle cx="10.46" cy="54.94" r="9.68" fill="#ed1e79"/>
    <path d="M43.28,40.17c5.84-5.72,6.75-14.11,2-18.73s-13.26-3.74-19.1,2-6.74,14.11-2,18.73S37.45,45.9,43.28,40.17Z" fill="#6ddc00"/>
    <path d="M65.69,11.42C54.49.45,32.27,2.77,17.76,17A36.69,36.69,0,0,0,8.82,31.28h4.45c1.12-4.22,3.92-8.35,7.52-11.88C31.12,9.26,46.65,7.53,54.62,15.34S61.18,37.86,50.85,48c-6.19,6.08-14.44,9.19-21.42,9V69.57A48.65,48.65,0,0,0,59.69,57.09C74.63,43.3,76.88,22.39,65.69,11.42Z" fill="#00bdff"/>
    <path d="M136.17,46.71c7.16,0,11.27-3.82,11.27-9.45v-.19c0-6.29-4.4-9.53-11.56-9.53h-14.6V46.71ZM106.59,14.29h30.54c8.49,0,15.07,2.38,19.45,6.77,3.73,3.72,5.74,9,5.74,15.25v.2c0,10.77-5.83,17.54-14.31,20.68L164.33,81H147.15l-14.3-21.36H121.28V81H106.59V14.29Z" fill="#fff"/>
    <path d="M226.4,47.85v-.19c0-11.44-8.4-21-20.23-21s-20,9.34-20,20.79v.19c0,11.44,8.4,21,20.24,21s20-9.33,20-20.78Zm-55.64,0v-.19c0-19,15-34.51,35.6-34.51s35.4,15.35,35.4,34.32v.19c0,19-15,34.5-35.59,34.5s-35.41-15.34-35.41-34.31Z" fill="#fff"/>
    <path d="M443.73,47.85v-.19c0-11.44-8.39-21-20.22-21s-20,9.34-20,20.79v.19c0,11.44,8.4,21,20.22,21s20-9.33,20-20.78Zm-55.63,0v-.19c0-19,15-34.51,35.59-34.51S459.1,28.5,459.1,47.47v.19c0,19-15,34.5-35.59,34.5S388.1,66.82,388.1,47.85Z" fill="#fff"/>
    <polygon points="250.69 14.29 266.53 14.29 284.1 42.51 301.65 14.29 317.5 14.29 317.5 81.02 302.9 81.02 302.9 37.47 284.1 65.96 283.72 65.96 265.11 37.75 265.11 81.02 250.69 81.02 250.69 14.29 250.69 14.29" fill="#fff"/>
    <polygon points="330.66 14.29 381.05 14.29 381.05 27.36 345.25 27.36 345.25 40.89 376.74 40.89 376.74 53.95 345.25 53.95 345.25 67.97 381.52 67.97 381.52 81.02 330.66 81.02 330.66 14.29 330.66 14.29" fill="#fff"/>
  </g>
</svg>
